<?xml version="1.0" encoding="UTF-8"?>
<svg xmlns="http://www.w3.org/2000/svg" viewBox="0 0 1600 1000" width="1600" height="1000">
  <defs>
    <linearGradient id="bgGrad" x1="0%" y1="0%" x2="0%" y2="100%">
      <stop offset="0%" stop-color="#0b1020"/>
      <stop offset="100%" stop-color="#050815"/>
    </linearGradient>
    <linearGradient id="windowBar" x1="0%" y1="0%" x2="0%" y2="100%">
      <stop offset="0%" stop-color="#1e293b"/>
      <stop offset="100%" stop-color="#0f172a"/>
    </linearGradient>
    <linearGradient id="brandGrad" x1="0%" y1="0%" x2="100%" y2="0%">
      <stop offset="0%" stop-color="#a78bfa"/>
      <stop offset="100%" stop-color="#f0abfc"/>
    </linearGradient>
    <filter id="shadow" x="-20%" y="-20%" width="140%" height="140%">
      <feGaussianBlur in="SourceAlpha" stdDeviation="8"/>
      <feOffset dx="0" dy="6" result="offsetblur"/>
      <feComponentTransfer><feFuncA type="linear" slope="0.5"/></feComponentTransfer>
      <feMerge><feMergeNode/><feMergeNode in="SourceGraphic"/></feMerge>
    </filter>
  </defs>

  <rect width="1600" height="1000" fill="url(#bgGrad)"/>

  <g filter="url(#shadow)">
    <rect x="40" y="40" width="1520" height="920" rx="14" fill="#0f172a" stroke="#1e293b"/>

    <rect x="40" y="40" width="1520" height="44" rx="14" fill="url(#windowBar)"/>
    <path d="M 40 84 L 1560 84" stroke="#1e293b"/>
    <g transform="translate(66, 62)">
      <circle cx="0" cy="0" r="7" fill="#ef4444"/>
      <circle cx="20" cy="0" r="7" fill="#fbbf24"/>
      <circle cx="40" cy="0" r="7" fill="#10b981"/>
    </g>
    <g transform="translate(700, 56)">
      <rect width="200" height="22" rx="11" fill="#0b1020" stroke="#334155"/>
      <text x="100" y="16" font-family="-apple-system, sans-serif" font-size="11" fill="#94a3b8" text-anchor="middle">🔒 localhost:3000</text>
    </g>

    <g transform="translate(40, 100)">
      <rect width="260" height="860" fill="#0b1020"/>
      <path d="M 300 0 L 300 860" stroke="#1e293b"/>

      <text x="24" y="40" font-family="-apple-system, sans-serif" font-size="20" font-weight="800" fill="url(#brandGrad)">Perpetual Engine</text>
      <text x="24" y="58" font-family="-apple-system, sans-serif" font-size="10" fill="#64748b">v0.1.0 · Dashboard</text>

      <g font-family="-apple-system, sans-serif" font-size="13" fill="#94a3b8" transform="translate(16, 100)">
        <g transform="translate(0, 0)">
          <rect width="228" height="34" rx="8" fill="#1e1b4b" stroke="#6366f1"/>
          <text x="16" y="22" fill="#c7d2fe" font-weight="600">📊  Kanban Board</text>
        </g>
        <text x="16" y="64">🖥  Agents</text>
        <text x="16" y="94">💬  Meetings</text>
        <text x="16" y="124">📈  Metrics</text>
        <text x="16" y="154">📝  Activity Feed</text>
        <text x="16" y="184">📂  Documents</text>
        <text x="16" y="214">⚙  Settings</text>
      </g>

      <g transform="translate(16, 420)">
        <text font-family="-apple-system, sans-serif" font-size="10" font-weight="600" fill="#64748b" letter-spacing="1">AGENT STATUS</text>
        <g font-family="-apple-system, sans-serif" font-size="12" fill="#cbd5e1" transform="translate(0, 20)">
          <g transform="translate(0, 0)">
            <circle cx="8" cy="12" r="5" fill="#10b981"/>
            <text x="24" y="16">CEO</text>
            <text x="220" y="16" text-anchor="end" fill="#64748b">active</text>
          </g>
          <g transform="translate(0, 28)">
            <circle cx="8" cy="12" r="5" fill="#10b981"/>
            <text x="24" y="16">CTO</text>
            <text x="220" y="16" text-anchor="end" fill="#64748b">coding</text>
          </g>
          <g transform="translate(0, 56)">
            <circle cx="8" cy="12" r="5" fill="#fbbf24"/>
            <text x="24" y="16">PO</text>
            <text x="220" y="16" text-anchor="end" fill="#64748b">meeting</text>
          </g>
          <g transform="translate(0, 84)">
            <circle cx="8" cy="12" r="5" fill="#10b981"/>
            <text x="24" y="16">Designer</text>
            <text x="220" y="16" text-anchor="end" fill="#64748b">idle</text>
          </g>
          <g transform="translate(0, 112)">
            <circle cx="8" cy="12" r="5" fill="#10b981"/>
            <text x="24" y="16">QA</text>
            <text x="220" y="16" text-anchor="end" fill="#64748b">testing</text>
          </g>
          <g transform="translate(0, 140)">
            <circle cx="8" cy="12" r="5" fill="#64748b"/>
            <text x="24" y="16">Marketer</text>
            <text x="220" y="16" text-anchor="end" fill="#64748b">paused</text>
          </g>
          <g transform="translate(0, 178)">
            <circle cx="8" cy="12" r="5" fill="#a78bfa"/>
            <text x="24" y="16" fill="#f0abfc">⟳ GDPR 변호사</text>
            <text x="220" y="16" text-anchor="end" fill="#a78bfa">4:12</text>
          </g>
        </g>
      </g>

      <g transform="translate(16, 720)">
        <rect width="228" height="110" rx="10" fill="#0a0d1c" stroke="#1e293b"/>
        <text x="16" y="24" font-family="-apple-system, sans-serif" font-size="11" fill="#64748b" letter-spacing="1">CURRENT SPRINT</text>
        <text x="16" y="46" font-family="-apple-system, sans-serif" font-size="13" fill="#e2e8f0" font-weight="600">Sprint 3 · MVP Launch</text>
        <text x="16" y="64" font-family="-apple-system, sans-serif" font-size="11" fill="#94a3b8">Day 8 / 14 · 57%</text>
        <rect x="16" y="76" width="196" height="8" rx="4" fill="#1e293b"/>
        <rect x="16" y="76" width="112" height="8" rx="4" fill="url(#brandGrad)"/>
        <text x="16" y="100" font-family="-apple-system, sans-serif" font-size="10" fill="#64748b">12 tasks · 7 done · 3 in progress</text>
      </g>
    </g>

    <g transform="translate(320, 100)">
      <text x="0" y="36" font-family="-apple-system, sans-serif" font-size="24" font-weight="700" fill="#f1f5f9">Kanban Board</text>
      <text x="0" y="58" font-family="-apple-system, sans-serif" font-size="13" fill="#94a3b8">실시간 동기화 · WebSocket</text>

      <g transform="translate(900, 24)" font-family="-apple-system, sans-serif">
        <rect x="0" y="0" width="140" height="32" rx="8" fill="#1e1b4b" stroke="#6366f1"/>
        <text x="70" y="21" font-size="12" fill="#c7d2fe" text-anchor="middle">+ New Task</text>
        <rect x="150" y="0" width="70" height="32" rx="8" fill="#0a0d1c" stroke="#334155"/>
        <text x="185" y="21" font-size="12" fill="#94a3b8" text-anchor="middle">Filter</text>
      </g>

      <g transform="translate(0, 90)">
        <g>
          <text x="0" y="0" font-family="-apple-system, sans-serif" font-size="13" font-weight="700" fill="#94a3b8" letter-spacing="1.5">BACKLOG · 5</text>

          <g transform="translate(0, 16)">
            <rect width="290" height="84" rx="10" fill="#111827" stroke="#1f2937"/>
            <rect x="0" y="0" width="4" height="84" rx="2" fill="#64748b"/>
            <text x="16" y="22" font-family="monospace" font-size="10" fill="#64748b">TASK-18</text>
            <text x="240" y="22" font-family="monospace" font-size="10" fill="#fbbf24" text-anchor="end">MID</text>
            <text x="16" y="44" font-family="-apple-system, sans-serif" font-size="13" fill="#e2e8f0" font-weight="600">프라이싱 페이지 초안</text>
            <g transform="translate(16, 58)">
              <rect width="50" height="18" rx="9" fill="#0c4a6e"/>
              <text x="25" y="13" font-size="10" fill="#67e8f9" text-anchor="middle" font-family="-apple-system, sans-serif">po</text>
              <rect x="60" y="0" width="66" height="18" rx="9" fill="#1f2937"/>
              <text x="93" y="13" font-size="10" fill="#94a3b8" text-anchor="middle" font-family="-apple-system, sans-serif">feature</text>
            </g>
          </g>

          <g transform="translate(0, 112)">
            <rect width="290" height="84" rx="10" fill="#111827" stroke="#1f2937"/>
            <rect x="0" y="0" width="4" height="84" rx="2" fill="#64748b"/>
            <text x="16" y="22" font-family="monospace" font-size="10" fill="#64748b">TASK-19</text>
            <text x="240" y="22" font-family="monospace" font-size="10" fill="#94a3b8" text-anchor="end">LOW</text>
            <text x="16" y="44" font-family="-apple-system, sans-serif" font-size="13" fill="#e2e8f0" font-weight="600">FAQ 페이지 카피 검토</text>
            <g transform="translate(16, 58)">
              <rect width="78" height="18" rx="9" fill="#831843"/>
              <text x="39" y="13" font-size="10" fill="#fbcfe8" text-anchor="middle" font-family="-apple-system, sans-serif">designer</text>
              <rect x="88" y="0" width="50" height="18" rx="9" fill="#1f2937"/>
              <text x="113" y="13" font-size="10" fill="#94a3b8" text-anchor="middle" font-family="-apple-system, sans-serif">copy</text>
            </g>
          </g>

          <g transform="translate(0, 208)">
            <rect width="290" height="84" rx="10" fill="#111827" stroke="#1f2937"/>
            <rect x="0" y="0" width="4" height="84" rx="2" fill="#64748b"/>
            <text x="16" y="22" font-family="monospace" font-size="10" fill="#64748b">TASK-20</text>
            <text x="240" y="22" font-family="monospace" font-size="10" fill="#fb7185" text-anchor="end">HIGH</text>
            <text x="16" y="44" font-family="-apple-system, sans-serif" font-size="13" fill="#e2e8f0" font-weight="600">온보딩 A/B 테스트 설계</text>
            <g transform="translate(16, 58)">
              <rect width="58" height="18" rx="9" fill="#78350f"/>
              <text x="29" y="13" font-size="10" fill="#fed7aa" text-anchor="middle" font-family="-apple-system, sans-serif">mkt</text>
              <rect x="68" y="0" width="72" height="18" rx="9" fill="#1f2937"/>
              <text x="104" y="13" font-size="10" fill="#94a3b8" text-anchor="middle" font-family="-apple-system, sans-serif">metrics</text>
            </g>
          </g>
        </g>

        <g transform="translate(310, 0)">
          <text x="0" y="0" font-family="-apple-system, sans-serif" font-size="13" font-weight="700" fill="#a78bfa" letter-spacing="1.5">IN PROGRESS · 3</text>

          <g transform="translate(0, 16)">
            <rect width="290" height="108" rx="10" fill="#1e1b4b" stroke="#6366f1"/>
            <rect x="0" y="0" width="4" height="108" rx="2" fill="#6366f1"/>
            <text x="16" y="22" font-family="monospace" font-size="10" fill="#a5b4fc">TASK-12</text>
            <text x="240" y="22" font-family="monospace" font-size="10" fill="#fb7185" text-anchor="end">HIGH</text>
            <text x="16" y="44" font-family="-apple-system, sans-serif" font-size="13" fill="#e0e7ff" font-weight="600">로그인 · OAuth 구현</text>
            <text x="16" y="62" font-family="-apple-system, sans-serif" font-size="11" fill="#a5b4fc">Google / GitHub SSO</text>
            <g transform="translate(16, 76)">
              <rect width="50" height="18" rx="9" fill="#0c4a6e"/>
              <text x="25" y="13" font-size="10" fill="#67e8f9" text-anchor="middle" font-family="-apple-system, sans-serif">cto</text>
              <rect x="60" y="0" width="66" height="18" rx="9" fill="#1f2937"/>
              <text x="93" y="13" font-size="10" fill="#94a3b8" text-anchor="middle" font-family="-apple-system, sans-serif">feature</text>
            </g>
            <g transform="translate(200, 86)">
              <rect width="72" height="16" rx="8" fill="#064e3b"/>
              <text x="36" y="12" font-size="9" fill="#6ee7b7" text-anchor="middle" font-family="-apple-system, sans-serif">● coding</text>
            </g>
          </g>

          <g transform="translate(0, 136)">
            <rect width="290" height="108" rx="10" fill="#1e1b4b" stroke="#6366f1"/>
            <rect x="0" y="0" width="4" height="108" rx="2" fill="#6366f1"/>
            <text x="16" y="22" font-family="monospace" font-size="10" fill="#a5b4fc">TASK-14</text>
            <text x="240" y="22" font-family="monospace" font-size="10" fill="#fbbf24" text-anchor="end">MID</text>
            <text x="16" y="44" font-family="-apple-system, sans-serif" font-size="13" fill="#e0e7ff" font-weight="600">히어로 섹션 디자인</text>
            <text x="16" y="62" font-family="-apple-system, sans-serif" font-size="11" fill="#a5b4fc">3종 시안 중 2번째 작업 중</text>
            <g transform="translate(16, 76)">
              <rect width="78" height="18" rx="9" fill="#831843"/>
              <text x="39" y="13" font-size="10" fill="#fbcfe8" text-anchor="middle" font-family="-apple-system, sans-serif">designer</text>
              <rect x="88" y="0" width="50" height="18" rx="9" fill="#1f2937"/>
              <text x="113" y="13" font-size="10" fill="#94a3b8" text-anchor="middle" font-family="-apple-system, sans-serif">ui</text>
            </g>
          </g>

          <g transform="translate(0, 256)">
            <rect width="290" height="108" rx="10" fill="#3b0764" stroke="#a855f7"/>
            <rect x="0" y="0" width="4" height="108" rx="2" fill="#a855f7"/>
            <text x="16" y="22" font-family="monospace" font-size="10" fill="#d8b4fe">TASK-15</text>
            <text x="240" y="22" font-family="monospace" font-size="10" fill="#fb7185" text-anchor="end">HIGH</text>
            <text x="16" y="44" font-family="-apple-system, sans-serif" font-size="13" fill="#f3e8ff" font-weight="600">API Rate Limiting 전략</text>
            <text x="16" y="62" font-family="-apple-system, sans-serif" font-size="11" fill="#d8b4fe">🗣 회의 중 (CTO · PO · QA)</text>
            <g transform="translate(16, 76)">
              <rect width="78" height="18" rx="9" fill="#581c87"/>
              <text x="39" y="13" font-size="10" fill="#f3e8ff" text-anchor="middle" font-family="-apple-system, sans-serif">meeting</text>
              <rect x="88" y="0" width="74" height="18" rx="9" fill="#1f2937"/>
              <text x="125" y="13" font-size="10" fill="#94a3b8" text-anchor="middle" font-family="-apple-system, sans-serif">discussion</text>
            </g>
          </g>
        </g>

        <g transform="translate(620, 0)">
          <text x="0" y="0" font-family="-apple-system, sans-serif" font-size="13" font-weight="700" fill="#fbbf24" letter-spacing="1.5">REVIEW · 2</text>

          <g transform="translate(0, 16)">
            <rect width="290" height="96" rx="10" fill="#111827" stroke="#374151"/>
            <rect x="0" y="0" width="4" height="96" rx="2" fill="#fbbf24"/>
            <text x="16" y="22" font-family="monospace" font-size="10" fill="#64748b">TASK-10</text>
            <text x="240" y="22" font-family="monospace" font-size="10" fill="#fbbf24" text-anchor="end">MID</text>
            <text x="16" y="44" font-family="-apple-system, sans-serif" font-size="13" fill="#e2e8f0" font-weight="600">랜딩페이지 카피</text>
            <text x="16" y="62" font-family="-apple-system, sans-serif" font-size="11" fill="#fde68a">✓ QA 검토 대기</text>
            <g transform="translate(16, 74)">
              <rect width="50" height="18" rx="9" fill="#0c4a6e"/>
              <text x="25" y="13" font-size="10" fill="#67e8f9" text-anchor="middle" font-family="-apple-system, sans-serif">po</text>
            </g>
          </g>

          <g transform="translate(0, 124)">
            <rect width="290" height="96" rx="10" fill="#111827" stroke="#374151"/>
            <rect x="0" y="0" width="4" height="96" rx="2" fill="#fbbf24"/>
            <text x="16" y="22" font-family="monospace" font-size="10" fill="#64748b">TASK-11</text>
            <text x="240" y="22" font-family="monospace" font-size="10" fill="#fb7185" text-anchor="end">HIGH</text>
            <text x="16" y="44" font-family="-apple-system, sans-serif" font-size="13" fill="#e2e8f0" font-weight="600">DB 스키마 설계</text>
            <text x="16" y="62" font-family="-apple-system, sans-serif" font-size="11" fill="#fde68a">✓ 보안 감사 중</text>
            <g transform="translate(16, 74)">
              <rect width="58" height="18" rx="9" fill="#064e3b"/>
              <text x="29" y="13" font-size="10" fill="#6ee7b7" text-anchor="middle" font-family="-apple-system, sans-serif">qa</text>
            </g>
          </g>
        </g>

        <g transform="translate(930, 0)">
          <text x="0" y="0" font-family="-apple-system, sans-serif" font-size="13" font-weight="700" fill="#10b981" letter-spacing="1.5">DONE · 7</text>

          <g transform="translate(0, 16)">
            <rect width="290" height="84" rx="10" fill="#052e16" stroke="#15803d"/>
            <rect x="0" y="0" width="4" height="84" rx="2" fill="#10b981"/>
            <text x="16" y="22" font-family="monospace" font-size="10" fill="#6ee7b7">TASK-5</text>
            <text x="240" y="22" font-family="monospace" font-size="10" fill="#94a3b8" text-anchor="end">✓ 4d ago</text>
            <text x="16" y="44" font-family="-apple-system, sans-serif" font-size="13" fill="#d1fae5" font-weight="600">기술 스택 결정</text>
            <g transform="translate(16, 58)">
              <rect width="50" height="18" rx="9" fill="#0c4a6e"/>
              <text x="25" y="13" font-size="10" fill="#67e8f9" text-anchor="middle" font-family="-apple-system, sans-serif">cto</text>
            </g>
          </g>

          <g transform="translate(0, 112)">
            <rect width="290" height="84" rx="10" fill="#052e16" stroke="#15803d"/>
            <rect x="0" y="0" width="4" height="84" rx="2" fill="#10b981"/>
            <text x="16" y="22" font-family="monospace" font-size="10" fill="#6ee7b7">TASK-7</text>
            <text x="240" y="22" font-family="monospace" font-size="10" fill="#94a3b8" text-anchor="end">✓ 2d ago</text>
            <text x="16" y="44" font-family="-apple-system, sans-serif" font-size="13" fill="#d1fae5" font-weight="600">브랜드 아이덴티티</text>
            <g transform="translate(16, 58)">
              <rect width="78" height="18" rx="9" fill="#831843"/>
              <text x="39" y="13" font-size="10" fill="#fbcfe8" text-anchor="middle" font-family="-apple-system, sans-serif">designer</text>
            </g>
          </g>

          <g transform="translate(0, 208)">
            <rect width="290" height="84" rx="10" fill="#052e16" stroke="#15803d"/>
            <rect x="0" y="0" width="4" height="84" rx="2" fill="#10b981"/>
            <text x="16" y="22" font-family="monospace" font-size="10" fill="#6ee7b7">TASK-9</text>
            <text x="240" y="22" font-family="monospace" font-size="10" fill="#94a3b8" text-anchor="end">✓ today</text>
            <text x="16" y="44" font-family="-apple-system, sans-serif" font-size="13" fill="#d1fae5" font-weight="600">비전 문서 초안</text>
            <g transform="translate(16, 58)">
              <rect width="50" height="18" rx="9" fill="#3730a3"/>
              <text x="25" y="13" font-size="10" fill="#c7d2fe" text-anchor="middle" font-family="-apple-system, sans-serif">ceo</text>
            </g>
          </g>
        </g>
      </g>

      <g transform="translate(0, 610)">
        <rect width="1220" height="226" rx="12" fill="#0b1020" stroke="#1e293b"/>
        <text x="24" y="34" font-family="-apple-system, sans-serif" font-size="16" font-weight="700" fill="#f1f5f9">📝 Activity Feed</text>
        <text x="160" y="34" font-family="-apple-system, sans-serif" font-size="11" fill="#64748b">실시간</text>

        <g font-family="-apple-system, sans-serif" font-size="12" fill="#cbd5e1" transform="translate(24, 60)">
          <g transform="translate(0, 0)">
            <circle cx="6" cy="6" r="4" fill="#10b981"/>
            <text x="20" y="10"><tspan fill="#67e8f9" font-weight="600">CTO</tspan> TASK-12 에 커밋 추가 · "add oauth providers"</text>
            <text x="1100" y="10" fill="#64748b" text-anchor="end">12:34</text>
          </g>
          <g transform="translate(0, 24)">
            <circle cx="6" cy="6" r="4" fill="#a855f7"/>
            <text x="20" y="10"><tspan fill="#f0abfc" font-weight="600">Orchestrator</tspan> 회의 시작 · API Rate Limiting 전략 (CTO · PO · QA)</text>
            <text x="1100" y="10" fill="#64748b" text-anchor="end">12:28</text>
          </g>
          <g transform="translate(0, 48)">
            <circle cx="6" cy="6" r="4" fill="#22d3ee"/>
            <text x="20" y="10"><tspan fill="#67e8f9" font-weight="600">CEO</tspan> 자문 요청 · "GDPR 전문 변호사" 생성 완료</text>
            <text x="1100" y="10" fill="#64748b" text-anchor="end">12:20</text>
          </g>
          <g transform="translate(0, 72)">
            <circle cx="6" cy="6" r="4" fill="#fbbf24"/>
            <text x="20" y="10"><tspan fill="#fde68a" font-weight="600">Metrics</tspan> Week 1 체크포인트 · DAU 180 (달성률 20%) · 중간 판정 관대</text>
            <text x="1100" y="10" fill="#64748b" text-anchor="end">12:05</text>
          </g>
          <g transform="translate(0, 96)">
            <circle cx="6" cy="6" r="4" fill="#f472b6"/>
            <text x="20" y="10"><tspan fill="#fbcfe8" font-weight="600">Designer</tspan> TASK-14 디자인 시안 2번째 업로드 · docs/design/hero-v2.md</text>
            <text x="1100" y="10" fill="#64748b" text-anchor="end">11:48</text>
          </g>
          <g transform="translate(0, 120)">
            <circle cx="6" cy="6" r="4" fill="#10b981"/>
            <text x="20" y="10"><tspan fill="#6ee7b7" font-weight="600">QA</tspan> TASK-11 DB 스키마 보안 감사 시작 · SQLi · 권한 분리 점검</text>
            <text x="1100" y="10" fill="#64748b" text-anchor="end">11:32</text>
          </g>
          <g transform="translate(0, 144)">
            <circle cx="6" cy="6" r="4" fill="#fb923c"/>
            <text x="20" y="10"><tspan fill="#fed7aa" font-weight="600">User</tspan> 메시지 수신 · "랜딩페이지를 먼저 끝내줘"</text>
            <text x="1100" y="10" fill="#64748b" text-anchor="end">11:15</text>
          </g>
          <g transform="translate(0, 168)">
            <circle cx="6" cy="6" r="4" fill="#a78bfa"/>
            <text x="20" y="10"><tspan fill="#c7d2fe" font-weight="600">PO</tspan> 스프린트 3 백로그 갱신 · 우선순위 재조정 · 5 tasks</text>
            <text x="1100" y="10" fill="#64748b" text-anchor="end">11:02</text>
          </g>
        </g>
      </g>
    </g>
  </g>
</svg>
